<?xml version="1.0" encoding="UTF-8"?>
<svg xmlns="http://www.w3.org/2000/svg" id="Vrstva_1" version="1.1" viewBox="0 0 1740 360" width="1024px" height="211.86206896552px">
  <!-- Generator: Adobe Illustrator 29.5.0, SVG Export Plug-In . SVG Version: 2.1.0 Build 137)  -->
  <defs>
    <style>
      .st0 {
        fill: #c50a25;
      }

      .st1 {
        fill: #e4032c;
      }

      .st2 {
        fill: #d60729;
      }

      .st3 {
        fill: #a80d1e;
      }

      .st4 {
        fill: #11263c;
      }
    </style>
  </defs>
  <g>
    <polygon class="st4" points="564.8457268 111.7107083 698.9908138 111.7107083 698.9908138 142.33682 606.2532915 142.33682 606.2532915 172.4695843 677.422283 172.4695843 677.422283 196.6267777 606.2532915 196.6267777 606.2532915 222.9901737 701.1471128 222.9901737 701.1471128 253.6162749 564.8457268 253.6162749 564.8457268 111.7107083"/>
    <path class="st4" d="M836.5831373,204.8745042c-2.8823959,5.9034962-7.4777527,10.393474-13.8024793,13.4810242-6.3303091,3.093101-14.5232051,4.634106-24.5895993,4.634106h-35.7978546v-80.6533431h32.9985186c10.6374093,0,19.3679105,1.7627164,26.1970861,5.2826515,6.8292601,3.525454,11.7571099,8.2704369,14.7726384,14.2349063,3.0210263,5.9700096,4.5342883,12.9045324,4.5342883,20.8091085,0,8.9189823-1.4411979,16.3191413-4.3125981,22.2115466M873.5673434,145.678815c-5.8203623-10.5653029-15.3158259-18.8690018-28.4643148-24.9110755-13.1594846-6.0365336-30.4487003-9.0575598-51.8731451-9.0575598h-72.2442864v141.905556h78.5025314c19.6949903,0,35.653811-2.6939888,47.8765465-8.0875065,12.2171531-5.3935177,21.097365-13.3369065,26.6349687-23.8301559,5.5321058-10.4932494,8.3036989-23.5086586,8.3036989-39.0351156,0-14.0852379-2.9101389-26.4188186-8.7359991-36.9841427"/>
    <path class="st4" d="M920.1944401,248.214447c-12.0065432-5.2826515-19.9166806-11.5852492-23.7193319-18.9022638-3.8137317-7.3114638-5.7205552-15.1661575-5.7205552-23.5696213v-.2161924h37.0950089c0,4.4955285,1.2970697,8.3314102,3.8802134,11.5132063,2.5886415,3.1873257,7.1230145,5.7261059,13.5918693,7.6052499,6.4689395,1.8846841,15.3823922,2.8214755,26.7403582,2.8214755,11.934479,0,21.097365-.7206095,27.4941558-2.1729301,6.3968753-1.4467698,10.7094735-3.4367695,12.9433768-5.9700096,2.2284055-2.5332295,3.3425236-5.6096995,3.3425236-9.2349395,0-3.7638281-1.2250056-6.479988-3.6696034-8.1429502-2.4445133-1.6629516-7.4056885-2.9378819-14.8778587-3.8026197-7.4777527-.8702779-20.4876111-1.81262-39.0351579-2.821486-17.2558903-.8702779-30.8422618-2.8270262-40.7646123-5.8702342-9.9166835-3.043208-17.0008747-7.2005976-21.2359108-12.4887998-4.2461164-5.2826409-6.3635499-12.2005432-6.3635499-20.7481352,0-9.1240838,2.982203-17.3058362,8.9521914-24.550776,5.9589927-7.2393997,15.0553124-12.9932381,27.278048-17.267034,12.2171531-4.273796,27.3888508-6.4079133,45.5040128-6.4079133,21.2803165,0,37.743586,2.2061815,49.3898086,6.6241057,11.6462225,4.4179242,19.5120388,10.1772816,23.6139424,17.2725742,4.0964057,7.0952715,6.1474421,15.5652592,6.1474421,25.4155033h-37.0950089c0-4.4899884-1.4745234-8.2537953-4.4234855-11.2970033-2.9489622-3.0432291-7.5443189-5.3547367-13.8025639-6.9511644-6.2526625-1.5908875-14.2016232-2.3891119-23.8301348-2.3891119-9.3458375,0-17.0009593.648556-22.9654498,1.9512081-5.9699884,1.3081923-10.3546507,3.1873151-13.1539867,5.6484911-2.8048339,2.4667161-4.2072086,5.4323199-4.2072086,8.9079126,0,3.4755716,1.042054,6.086416,3.1263313,7.8214317,2.0841926,1.7350157,6.9344805,3.1152721,14.5563614,4.1296677,7.6163831,1.0144168,20.1273751,2.0288124,37.5273937,3.0376679,17.538649,1.0144168,31.413277,2.8991009,41.6237994,5.6485122,10.1994421,2.7549621,17.6051307,6.7737635,22.2115677,12.0619657,4.5952722,5.282662,6.9012396,12.2726179,6.9012396,20.9643276,0,8.8302978-2.2339033,16.8679219-6.6906297,24.1073216-4.4511439,7.2449399-12.9766176,13.2537621-25.5540914,18.0319859-12.5829716,4.7782237-30.2270101,7.1728863-52.9429421,7.1728863-22.5718884,0-39.866602-2.6441064-51.8675627-7.9323085"/>
    <polygon class="st4" points="1112.4836891 142.3356993 1057.7447262 142.3356993 1057.7447262 111.7096087 1207.7987303 111.7096087 1207.7987303 142.3356993 1153.0597674 142.3356993 1153.0597674 253.6151647 1112.4836891 253.6151647 1112.4836891 142.3356993"/>
    <path class="st4" d="M1342.3285822,204.7126348c-3.5254752,6.5963944-8.9910993,11.7681796-16.3912054,15.5320077-7.4056885,3.7693682-16.7127027,5.6485017-27.9321229,5.6485017-10.9255813,0-20.1272905-1.8070693-27.5995453-5.4267691-7.4777527-3.6197104-13.0153563-8.7249822-16.6073978-15.3158259-3.5974547-6.5908543-5.3934754-14.2293662-5.3934754-22.9210758,0-7.9600198,1.8347594-15.1716977,5.5043628-21.612873,3.664021-6.4467366,9.2294522-11.5852598,16.7072049-15.4266922,7.4777527-3.8358922,16.6073132-5.7593785,27.3888508-5.7593785,10.7870354,0,19.9166806,1.9234863,27.3944332,5.7593785,7.4721702,3.8414324,13.0430993,8.9799556,16.7071203,15.4266922,3.6696034,6.4411753,5.5044474,13.6528532,5.5044474,21.612873,0,8.4034743-1.7627799,15.8978579-5.2826726,22.4831615M1380.9313553,144.9737157c-6.8292601-11.0808109-17.2227341-19.9111193-31.1638438-26.5075031-13.95219-6.5853036-31.2025824-9.8835061-51.7622577-9.8835061s-37.8156502,3.2982025-51.7567599,9.8835061c-13.9466075,6.5963839-24.3345837,15.4266922-31.1637592,26.5075031-6.8291755,11.0752919-10.2438479,23.4255142-10.2438479,37.0395758,0,14.6284678,3.3758491,27.5551713,10.1329605,38.7745809,6.757196,11.2249498,17.1118467,20.0275362,31.0584542,26.3966474,13.9466921,6.3746725,31.2747312,9.556458,51.9729522,9.556458,21.1361883,0,38.6803351-3.2926518,52.6214448-9.8835061,13.9466921-6.5853036,24.1904554-15.493195,30.7369568-26.7181448,6.5410036-11.2249603,9.8114631-23.935482,9.8114631-38.1260355,0-13.6140616-3.4145878-25.9642838-10.2437633-37.0395758"/>
    <polygon class="st4" points="1405.1240099 111.7107083 1462.9171553 111.7107083 1538.6205198 197.1145744 1538.8311297 197.1145744 1538.8311297 111.7107083 1578.9471649 111.7107083 1578.9471649 253.6162749 1537.9719426 253.6162749 1445.4505704 149.2380808 1445.2399605 149.2380808 1445.2399605 253.6162749 1405.1240099 253.6162749 1405.1240099 111.7107083"/>
    <polygon class="st4" points="1598.6986562 111.7112792 1598.6986562 253.6168458 1735 253.6168458 1735 222.9907447 1640.1060941 222.9907447 1640.1060941 196.6273486 1711.2751702 196.6273486 1711.2751702 172.4701552 1640.1060941 172.4701552 1640.1060941 142.3373909 1732.8436586 142.3373909 1732.8436586 111.7112792 1598.6986562 111.7112792"/>
    <path class="st4" d="M505.5541212,162.9175774c-1.9733898,2.7715931-4.9722555,4.9888548-9.1684261,6.5354212-4.201753,1.5520853-9.6894954,2.328128-16.4632695,2.328128h-51.0471989v-34.7668597h47.2889109c7.8048324,0,14.1018584.7372405,18.8912047,2.2117216,4.789304,1.4800424,8.2094319,3.5476357,10.2770464,6.2028224,2.0620744,2.6607268,3.0930904,5.9256673,3.0930904,9.6174313,0,3.9855606-1.5964065,6.0753357-2.8713579,7.8713353M538.6968526,189.7188666c-3.1485341-3.1485235-7.5941802-5.5431861-13.3203178-7.1895067,7.8436134-3.2316785,13.5863715-9.1795064,17.1894509-14.6229277,4.0465022-6.1307583,6.0753357-11.0309285,6.0753357-19.1572372,0-9.1518057-2.2117428-14.5896657-6.6296459-20.9366163-4.4179454-6.3524908-11.8568748-11.2582223-22.3168727-14.7337939-10.4599979-3.4644913-24.3844872-5.2050472-41.7623875-5.2050472h-91.4791913v145.7414377h42.4220026v-57.0282993h52.5937441c6.0365547,0,10.7870354.7760532,14.2515268,2.3225984,3.4589512,1.5520959,5.9256673,3.9190366,7.4001484,7.0897313,1.4745234,3.1762454,2.2117428,11.8845966,2.2117428,17.0508417v30.5651279h42.4275428v-30.5651279c0-6.1972822-.5930911-16.1639327-1.7738179-20.8146592-1.1806844-4.650737-3.6086196-8.8192069-7.289261-12.5165216"/>
  </g>
  <g>
    <polygon class="st1" points="154.6809961 7.2393996 5.0038802 93.6188699 5.0038802 266.3722701 154.6809961 352.7517404 304.3581014 266.3722701 304.3581014 93.6188699 154.6809961 7.2393996"/>
    <polygon class="st0" points="154.6809961 179.9988899 154.6809961 352.7578303 304.3581014 266.3839002 154.6865363 179.9988899 154.6809961 179.9988899"/>
    <polygon class="st2" points="5 266.3811301 154.6881962 180.0016599 5.0055432 93.6166496 5 266.3811301"/>
    <polygon class="st3" points="5 266.3811301 154.682656 352.7606004 154.6881962 180.0016599 5 266.3811301"/>
    <polygon class="st2" points="304.3558812 93.6183201 154.6898561 180.0033304 304.3558812 266.3772605 304.3558812 93.6183201"/>
  </g>
</svg>
